<svg xmlns="http://www.w3.org/2000/svg" xmlns:xlink="http://www.w3.org/1999/xlink" width="100" height="100" viewBox="0 0 100 100">
    <defs>
        <path id="a" d="M0 0H90.89v100H.001z"/>
    </defs>
    <g fill="none" fill-rule="evenodd">
        <g >
            <path fill="#FFF" d="M30.504 38.484l19.94 9.971 19.941-9.97v-3.44h-39.88z"/>
            <path fill="#FFF" d="M49.323 53.465l-18.818-9.397v20.887h39.88V44.068l-18.818 9.397a2.497 2.497 0 0 1-2.244 0"/>
            <g transform="translate(5)">
                <mask id="b" fill="#fff">
                    <use xlink:href="#a"/>
                </mask>
                <path fill="#FFF" d="M70.37 64.955a4.984 4.984 0 0 1-4.985 4.985h-39.88a4.985 4.985 0 0 1-4.986-4.985v-29.91a5.001 5.001 0 0 1 4.986-4.986h39.88a4.985 4.985 0 0 1 4.986 4.986v29.91zm12.52-45.812l-29.446-17a16 16 0 0 0-16 0L8 19.143A16 16 0 0 0 .002 33V67A15.998 15.998 0 0 0 8 80.856l29.444 17a15.996 15.996 0 0 0 16 0l29.447-17A15.998 15.998 0 0 0 90.889 67V33a16 16 0 0 0-7.998-13.857z" mask="url(#b)"/>
            </g>
        </g>
    </g>
</svg>
